<svg xmlns="http://www.w3.org/2000/svg" width="800" height="600" viewBox="0 0 800 600">
  <!-- 背景 -->
  <rect width="800" height="600" fill="#fff"/>
  
  <!-- 边框装饰 -->
  <rect x="10" y="10" width="780" height="580" fill="none" stroke="#c00" stroke-width="2" rx="5" ry="5"/>
  <rect x="20" y="20" width="760" height="560" fill="none" stroke="#c00" stroke-width="1" rx="5" ry="5"/>
  
  <!-- 角落装饰 -->
  <g fill="#c00" opacity="0.8">
    <!-- 左上角 -->
    <path d="M10,10 L60,10 L60,15 L15,15 L15,60 L10,60 Z"/>
    <!-- 右上角 -->
    <path d="M790,10 L790,60 L785,60 L785,15 L740,15 L740,10 Z"/>
    <!-- 左下角 -->
    <path d="M10,590 L10,540 L15,540 L15,585 L60,585 L60,590 Z"/>
    <!-- 右下角 -->
    <path d="M790,590 L740,590 L740,585 L785,585 L785,540 L790,540 Z"/>
  </g>
  
  <!-- 中央图案 -->
  <g opacity="0.05">
    <!-- 校园建筑剪影 -->
    <path d="M400,150 L500,250 L550,230 L600,280 L650,260 L700,320 L700,400 L100,400 L100,320 L150,260 L200,280 L250,230 L300,250 L400,150 Z" fill="#000"/>
    
    <!-- 装饰线条 -->
    <path d="M100,420 L700,420 M100,440 L700,440 M100,460 L700,460" stroke="#000" stroke-width="1" stroke-dasharray="5,5"/>
  </g>
  
  <!-- 花纹装饰 -->
  <g opacity="0.1">
    <!-- 左侧花纹 -->
    <path d="M50,200 C70,220 70,240 50,260 C30,280 30,300 50,320 C70,340 70,360 50,380" stroke="#c00" stroke-width="2" fill="none"/>
    
    <!-- 右侧花纹 -->
    <path d="M750,200 C730,220 730,240 750,260 C770,280 770,300 750,320 C730,340 730,360 750,380" stroke="#c00" stroke-width="2" fill="none"/>
  </g>
  
  <!-- 顶部装饰 -->
  <path d="M350,50 L450,50 L440,60 L460,60 L450,70 L470,70 L460,80 L440,80 L450,90 L350,90 L360,80 L340,80 L350,70 L330,70 L340,60 L360,60 Z" fill="#c00" opacity="0.7"/>
  
  <!-- 底部装饰 -->
  <path d="M350,510 L450,510 L440,520 L460,520 L450,530 L470,530 L460,540 L440,540 L450,550 L350,550 L360,540 L340,540 L350,530 L330,530 L340,520 L360,520 Z" fill="#c00" opacity="0.7"/>
</svg>