<svg xmlns="http://www.w3.org/2000/svg" width="800" height="600" viewBox="0 0 800 600">
  <!-- 背景 -->
  <rect width="800" height="600" fill="#fff"/>
  
  <!-- 边框装饰 -->
  <rect x="10" y="10" width="780" height="580" fill="none" stroke="#1e40af" stroke-width="2" rx="10" ry="10"/>
  <rect x="20" y="20" width="760" height="560" fill="none" stroke="#1e40af" stroke-width="1" rx="8" ry="8"/>
  
  <!-- 角落装饰 - 现代风格圆角 -->
  <g fill="#1e40af" opacity="0.7">
    <!-- 左上角 -->
    <circle cx="30" cy="30" r="10"/>
    <!-- 右上角 -->
    <circle cx="770" cy="30" r="10"/>
    <!-- 左下角 -->
    <circle cx="30" cy="570" r="10"/>
    <!-- 右下角 -->
    <circle cx="770" cy="570" r="10"/>
  </g>
  
  <!-- 中央图案 - 现代科技感 -->
  <g opacity="0.05">
    <!-- 抽象建筑线条 -->
    <path d="M200,200 L600,200 L600,400 L200,400 Z" stroke="#1e40af" stroke-width="2" fill="none"/>
    <path d="M250,250 L550,250 L550,350 L250,350 Z" stroke="#1e40af" stroke-width="1" fill="none"/>
    
    <!-- 网格线条 -->
    <path d="M100,150 L700,150 M100,250 L700,250 M100,350 L700,350 M100,450 L700,450" stroke="#1e40af" stroke-width="0.5" stroke-dasharray="2,2"/>
    <path d="M150,100 L150,500 M250,100 L250,500 M350,100 L350,500 M450,100 L450,500 M550,100 L550,500 M650,100 L650,500" stroke="#1e40af" stroke-width="0.5" stroke-dasharray="2,2"/>
  </g>
  
  <!-- 装饰元素 - 现代几何图形 -->
  <g opacity="0.1">
    <circle cx="400" cy="300" r="150" stroke="#1e40af" stroke-width="1" fill="none"/>
    <circle cx="400" cy="300" r="100" stroke="#1e40af" stroke-width="1" fill="none"/>
    <circle cx="400" cy="300" r="50" stroke="#1e40af" stroke-width="1" fill="none"/>
  </g>
  
  <!-- 顶部装饰 - 现代简约线条 -->
  <path d="M300,50 L500,50" stroke="#1e40af" stroke-width="3" fill="none"/>
  <path d="M350,70 L450,70" stroke="#1e40af" stroke-width="2" fill="none"/>
  
  <!-- 底部装饰 - 现代简约线条 -->
  <path d="M300,550 L500,550" stroke="#1e40af" stroke-width="3" fill="none"/>
  <path d="M350,530 L450,530" stroke="#1e40af" stroke-width="2" fill="none"/>
</svg>